<svg width="20" height="20" viewBox="0 0 20 20" fill="none" xmlns="http://www.w3.org/2000/svg">
<path fill-rule="evenodd" clip-rule="evenodd" d="M5.47945 7.97994C5.67472 7.78468 5.9913 7.78468 6.18656 7.97994L9.44813 11.2415C9.61237 11.4058 9.71456 11.5074 9.79741 11.5777C9.87527 11.6438 9.90304 11.6528 9.90689 11.6541L9.90697 11.6541C9.96722 11.6737 10.0321 11.6737 10.0924 11.6541L10.0925 11.6541C10.0963 11.6528 10.1241 11.6438 10.2019 11.5777C10.2848 11.5074 10.387 11.4058 10.5512 11.2415L13.8128 7.97994C14.008 7.78468 14.3246 7.78468 14.5199 7.97994C14.7152 8.1752 14.7152 8.49179 14.5199 8.68705L11.2583 11.9486L11.2453 11.9616C11.0981 12.1089 10.9669 12.2401 10.8491 12.3401C10.7234 12.4468 10.5805 12.547 10.4014 12.6052C10.1403 12.69 9.85905 12.69 9.59795 12.6052C9.41884 12.547 9.27592 12.4468 9.15024 12.3401C9.03246 12.2401 8.90128 12.1089 8.75399 11.9616L8.74103 11.9486L5.47945 8.68705C5.28419 8.49179 5.28419 8.1752 5.47945 7.97994Z" fill="#495057"/>
</svg>
