<svg viewBox="0 0 16 17" fill="none" xmlns="http://www.w3.org/2000/svg">
<path d="M4.12847 2.5C3.84454 2.5 3.57204 2.61997 3.37153 2.83325L2.62887 3.61971C2.2451 4.02599 2.02087 4.57149 2.00138 5.14622C1.9819 5.72094 2.16863 6.28212 2.52389 6.71657C2.87916 7.15103 3.37655 7.42643 3.91573 7.48725C4.45492 7.54807 4.99579 7.38977 5.42926 7.04429C5.78745 7.32906 6.23247 7.49871 6.71463 7.49871C7.19679 7.49871 7.64238 7.32906 8 7.04429C8.35762 7.32906 8.80321 7.49871 9.28537 7.49871C9.76753 7.49871 10.2125 7.32906 10.5707 7.04429C11.0042 7.38977 11.5451 7.54807 12.0843 7.48725C12.6235 7.42643 13.1208 7.15103 13.4761 6.71657C13.8314 6.28212 14.0181 5.72094 13.9986 5.14622C13.9791 4.57149 13.7549 4.02599 13.3711 3.61971L12.6285 2.83264C12.4277 2.61975 12.1554 2.5001 11.8715 2.5H4.12847Z" fill="#6B7280"/>
<path fill-rule="evenodd" clip-rule="evenodd" d="M2.85714 13.6225V8.50058C3.66857 8.89489 4.61714 8.89431 5.42857 8.50058C5.83036 8.6957 6.26959 8.79662 6.71429 8.79602C7.17371 8.79602 7.61029 8.68955 8 8.5C8.40174 8.69531 8.84098 8.79644 9.28571 8.79602C9.74514 8.79602 10.1811 8.68955 10.5714 8.5C11.3829 8.89431 12.3314 8.89489 13.1429 8.50058V13.6225H13.5714C13.6851 13.6225 13.7941 13.6687 13.8745 13.751C13.9548 13.8333 14 13.9449 14 14.0612C14 14.1776 13.9548 14.2892 13.8745 14.3715C13.7941 14.4538 13.6851 14.5 13.5714 14.5H2.42857C2.31491 14.5 2.2059 14.4538 2.12553 14.3715C2.04515 14.2892 2 14.1776 2 14.0612C2 13.9449 2.04515 13.8333 2.12553 13.751C2.2059 13.6687 2.31491 13.6225 2.42857 13.6225H2.85714ZM4.57143 10.1123C4.57143 9.99596 4.61658 9.88435 4.69695 9.80207C4.77733 9.71978 4.88634 9.67356 5 9.67356H6.71429C6.82795 9.67356 6.93696 9.71978 7.01733 9.80207C7.0977 9.88435 7.14286 9.99596 7.14286 10.1123V11.8674C7.14286 11.9838 7.0977 12.0954 7.01733 12.1777C6.93696 12.2599 6.82795 12.3062 6.71429 12.3062H5C4.88634 12.3062 4.77733 12.2599 4.69695 12.1777C4.61658 12.0954 4.57143 11.9838 4.57143 11.8674V10.1123ZM9.28571 9.67356C9.17205 9.67356 9.06304 9.71978 8.98267 9.80207C8.9023 9.88435 8.85714 9.99596 8.85714 10.1123V13.1837C8.85714 13.4259 9.04914 13.6225 9.28571 13.6225H11C11.1137 13.6225 11.2227 13.5762 11.303 13.494C11.3834 13.4117 11.4286 13.3001 11.4286 13.1837V10.1123C11.4286 9.99596 11.3834 9.88435 11.303 9.80207C11.2227 9.71978 11.1137 9.67356 11 9.67356H9.28571Z" fill="#6B7280"/>
</svg>
